<svg data-v-70b83f88="" version="1.0" xmlns="http://www.w3.org/2000/svg" xmlns:xlink="http://www.w3.org/1999/xlink" width="100%" height="100%" viewBox="0 0 340.000000 250.000000" preserveAspectRatio="xMidYMid meet" color-interpolation-filters="sRGB" style="margin: auto;"> <rect data-v-70b83f88="" x="0" y="0" width="100%" height="100%" fill="#eeebe0" fill-opacity="1" class="background"></rect> <!----> <g data-v-70b83f88="" fill="#1d0a5b" class="icon-text-wrapper icon-svg-group iconsvg" transform="translate(63.154998779296875,99.49700164794922)"><g class="iconsvg-imagesvg" transform="translate(0,4.287940979003906)"><g><rect fill="#1d0a5b" fill-opacity="0" stroke-width="2" x="0" y="0" width="60" height="42.43011406628998" class="image-rect"></rect> <svg filter="url(#colors1904491672)" x="0" y="0" width="60" height="42.43011406628998" filtersec="colorsf5204497582" class="image-svg-svg primary" style="overflow: visible;"><svg xmlns="http://www.w3.org/2000/svg" viewBox="-0.6000000000000001 -1.025 61.2 44.45"><path d="M44.5 21.7h5.7c-.2 5-2.1 9.9-5.9 13.6M15.7 6.9L1.4 21.2l14.3 14.3c7.9 7.9 20.6 7.9 28.5 0m.1-.1l14.3-14.3L44.3 6.9C36.4-1 23.7-1 15.8 6.9m-.1 0c-3.8 3.8-5.7 8.7-5.9 13.6h5.7m24.7-9.6c-5.7-5.7-14.8-5.7-20.5 0s-5.7 14.8 0 20.5 14.8 5.7 20.5 0c5.7-5.7 5.7-14.9 0-20.5z" fill="none" stroke="#282828" stroke-width="2" stroke-miterlimit="10"></path></svg></svg> <defs><filter id="colors1904491672"><feColorMatrix type="matrix" values="0 0 0 0 0.11328125  0 0 0 0 0.0390625  0 0 0 0 0.35546875  0 0 0 1 0" class="icon-fecolormatrix"></feColorMatrix></filter> <filter id="colorsf5204497582"><feColorMatrix type="matrix" values="0 0 0 0 0.99609375  0 0 0 0 0.99609375  0 0 0 0 0.99609375  0 0 0 1 0" class="icon-fecolormatrix"></feColorMatrix></filter> <filter id="colorsb8633496058"><feColorMatrix type="matrix" values="0 0 0 0 0  0 0 0 0 0  0 0 0 0 0  0 0 0 1 0" class="icon-fecolormatrix"></feColorMatrix></filter></defs></g></g> <g transform="translate(67,0)"><g data-gra="path-name" fill-rule="" class="tp-name iconsvg-namesvg" transform="translate(0,0)"><g transform="scale(1)"><g><path d="M7.87-15.79L7.87-4.01 17.82-4.01 17.82 0 2.86 0 2.86-34.43 17.43-34.43 17.43-30.41 7.87-30.41 7.87-19.8 15.79-19.8 15.79-15.79 7.87-15.79ZM30.58-26.89L30.58-26.89 31.68-26.89 31.68-22.61 29.7-22.61Q26.23-22.61 26.23-18.54L26.23-18.54 26.23 0 21.28 0 21.28-26.84 26.23-26.84 26.23-23.54Q26.67-24.97 27.8-25.93 28.93-26.89 30.58-26.89ZM43.34-5.39L43.34-5.39 43.34-9.85Q43.34-10.84 43.01-11.14 42.68-11.44 41.69-11.44L41.69-11.44 38.88-11.44Q33.77-11.44 33.77-16.28L33.77-16.28 33.77-21.95Q33.77-26.84 38.88-26.84L38.88-26.84 42.9-26.84Q48.07-26.84 48.07-21.95L48.07-21.95 48.07-19.36 43.23-19.36 43.23-21.45Q43.23-22.44 42.9-22.74 42.57-23.05 41.58-23.05L41.58-23.05 40.26-23.05Q39.27-23.05 38.94-22.74 38.61-22.44 38.61-21.45L38.61-21.45 38.61-16.83Q38.61-15.84 38.94-15.54 39.27-15.23 40.26-15.23L40.26-15.23 43.12-15.23Q48.18-15.23 48.18-10.34L48.18-10.34 48.18-4.84Q48.18 0 43.06 0L43.06 0 38.99 0Q33.88 0 33.88-4.84L33.88-4.84 33.88-7.48 38.72-7.48 38.72-5.39Q38.72-4.4 39.05-4.1 39.38-3.79 40.37-3.79L40.37-3.79 41.69-3.79Q42.68-3.79 43.01-4.1 43.34-4.4 43.34-5.39ZM61.49-26.84L61.49-22.82 57.8-22.82 57.8-5.83Q57.8-4.84 58.11-4.54 58.41-4.24 59.4-4.24L59.4-4.24 61.49-4.24 61.49 0 57.97 0Q52.8 0 52.8-4.84L52.8-4.84 52.8-22.82 50.27-22.82 50.27-26.84 52.8-26.84 52.8-31.41 57.8-31.41 57.8-26.84 61.49-26.84ZM83.27-4.24L86.95-26.84 91.63-26.84 86.68 0 80.13 0 76.94-20.3 73.75 0 67.21 0 62.31-26.84 66.99-26.84 70.56-4.24 74.03-26.84 79.91-26.84 83.27-4.24ZM102.69-26.84L102.69-26.84 104.61-26.84Q109.62-26.84 109.62-21.95L109.62-21.95 109.62 0 104.67 0 104.67-21.23Q104.67-22.22 104.34-22.52 104-22.82 103.02-22.82L103.02-22.82 101.09-22.82Q100.1-22.82 99.69-22.39 99.28-21.95 99.28-20.9L99.28-20.9 99.28 0 94.33 0 94.33-36.8 99.28-36.8 99.28-24.7Q99.99-26.84 102.69-26.84ZM119.46-31.96L114.29-31.96 114.29-36.85 119.46-36.85 119.46-31.96ZM119.35-26.84L119.35 0 114.4 0 114.4-26.84 119.35-26.84ZM129.14-36.8L129.14 0 124.19 0 124.19-36.8 129.14-36.8ZM138.99-26.84L138.99-26.84 144.38-26.84Q149.55-26.84 149.55-21.95L149.55-21.95 149.55-11.88 138.71-11.88 138.71-5.5Q138.71-4.57 139.04-4.24 139.37-3.9 140.36-3.9L140.36-3.9 142.89-3.9Q143.88-3.9 144.21-4.24 144.54-4.57 144.54-5.55L144.54-5.55 144.54-7.75 149.38-7.75 149.38-4.84Q149.38 0 144.27 0L144.27 0 138.99 0Q133.87 0 133.87-4.84L133.87-4.84 133.87-21.95Q133.87-26.84 138.99-26.84ZM138.71-21.34L138.71-15.51 144.65-15.51 144.65-21.34Q144.65-22.27 144.35-22.61 144.05-22.93 143.06-22.93L143.06-22.93 140.36-22.93Q139.37-22.93 139.04-22.61 138.71-22.27 138.71-21.34L138.71-21.34Z" transform="translate(-2.8600001335144043, 36.849998474121094)"></path></g> <!----> <!----> <!----> <!----> <!----> <!----> <!----></g></g> <g data-gra="path-slogan" fill-rule="" class="tp-slogan iconsvg-slogansvg" fill="#cd8c2a" transform="translate(5,42.849998474121094)"><rect x="0" height="1" y="3.580000400543213" width="33.105003356933594"></rect> <rect height="1" y="3.580000400543213" width="33.105003356933594" x="103.58499908447266"></rect> <g transform="translate(36.105003356933594,0)"><g transform="scale(1)"><path d="M1.08-7.87L1.08 0L2.08 0L2.08-3.53L5.08-3.53L5.08-4.37L2.08-4.37L2.08-7.03L5.62-7.03L5.62-7.87ZM8.00-4.14L8.00-7.07L9.32-7.07C9.94-7.07 10.41-6.96 10.74-6.76C11.07-6.55 11.23-6.18 11.23-5.66C11.23-5.15 11.07-4.77 10.74-4.52C10.41-4.27 9.94-4.14 9.32-4.14ZM11.33 0L12.46 0L10.46-3.43C11.00-3.57 11.43-3.82 11.75-4.19C12.07-4.56 12.23-5.05 12.23-5.66C12.23-6.07 12.16-6.42 12.02-6.70C11.89-6.98 11.70-7.20 11.45-7.38C11.21-7.56 10.92-7.68 10.58-7.76C10.24-7.83 9.87-7.87 9.47-7.87L7.01-7.87L7.01 0L8.00 0L8.00-3.32L9.43-3.32ZM17.21-3.20L14.84-3.20L15.22-4.40C15.36-4.84 15.50-5.28 15.62-5.72C15.75-6.15 15.88-6.60 16.00-7.06L16.04-7.06C16.17-6.60 16.30-6.15 16.43-5.72C16.56-5.28 16.69-4.84 16.84-4.40ZM17.46-2.40L18.20 0L19.27 0L16.61-7.87L15.48-7.87L12.82 0L13.84 0L14.59-2.40ZM20.39-7.87L20.39 0L21.31 0L21.31-4.33C21.31-4.68 21.30-5.07 21.26-5.50C21.23-5.92 21.20-6.31 21.18-6.66L21.23-6.66L21.85-4.91L23.38-0.79L23.94-0.79L25.45-4.91L26.09-6.66L26.14-6.66C26.10-6.31 26.07-5.92 26.05-5.50C26.02-5.07 26.00-4.68 26.00-4.33L26.00 0L26.95 0L26.95-7.87L25.78-7.87L24.26-3.65L23.71-2.04L23.66-2.04L23.09-3.65L21.56-7.87ZM29.11-7.87L29.11 0L33.77 0L33.77-0.85L30.11-0.85L30.11-3.71L33.10-3.71L33.10-4.56L30.11-4.56L30.11-7.03L33.65-7.03L33.65-7.87ZM34.63-7.87L36.30 0L37.49 0L38.65-4.74C38.72-5.04 38.78-5.34 38.85-5.63C38.92-5.93 38.98-6.22 39.05-6.53L39.10-6.53C39.16-6.22 39.22-5.93 39.28-5.63C39.34-5.34 39.41-5.04 39.48-4.74L40.67 0L41.87 0L43.50-7.87L42.54-7.87L41.71-3.59C41.63-3.16 41.56-2.74 41.48-2.32C41.41-1.90 41.34-1.48 41.27-1.04L41.22-1.04C41.12-1.48 41.03-1.90 40.93-2.33C40.84-2.75 40.74-3.17 40.64-3.59L39.55-7.87L38.64-7.87L37.55-3.59C37.46-3.16 37.37-2.74 37.27-2.32C37.18-1.90 37.08-1.48 37.00-1.04L36.95-1.04C36.88-1.48 36.80-1.90 36.72-2.32C36.64-2.73 36.56-3.16 36.49-3.59L35.66-7.87ZM47.70 0.14C48.20 0.14 48.65 0.05 49.06-0.14C49.47-0.34 49.83-0.61 50.13-0.97C50.43-1.32 50.66-1.75 50.83-2.26C50.99-2.77 51.07-3.34 51.07-3.97C51.07-4.60 50.99-5.16 50.83-5.66C50.66-6.16 50.43-6.58 50.13-6.93C49.83-7.28 49.47-7.55 49.06-7.73C48.65-7.92 48.20-8.02 47.70-8.02C47.20-8.02 46.75-7.92 46.34-7.74C45.93-7.56 45.57-7.29 45.28-6.94C44.98-6.59 44.75-6.17 44.59-5.67C44.42-5.17 44.34-4.60 44.34-3.97C44.34-3.34 44.42-2.77 44.59-2.26C44.75-1.75 44.98-1.32 45.28-0.97C45.57-0.61 45.93-0.34 46.34-0.14C46.75 0.05 47.20 0.14 47.70 0.14ZM47.70-0.73C47.35-0.73 47.03-0.81 46.75-0.96C46.46-1.11 46.22-1.33 46.01-1.61C45.81-1.90 45.65-2.24 45.54-2.63C45.43-3.03 45.37-3.48 45.37-3.97C45.37-4.46 45.43-4.90 45.54-5.29C45.65-5.68 45.81-6.02 46.01-6.29C46.22-6.56 46.46-6.77 46.75-6.92C47.03-7.07 47.35-7.14 47.70-7.14C48.05-7.14 48.37-7.07 48.65-6.92C48.94-6.77 49.18-6.56 49.39-6.29C49.59-6.02 49.75-5.68 49.86-5.29C49.97-4.90 50.03-4.46 50.03-3.97C50.03-3.48 49.97-3.03 49.86-2.63C49.75-2.24 49.59-1.90 49.39-1.61C49.18-1.33 48.94-1.11 48.65-0.96C48.37-0.81 48.05-0.73 47.70-0.73ZM53.76-4.14L53.76-7.07L55.08-7.07C55.70-7.07 56.17-6.96 56.50-6.76C56.82-6.55 56.99-6.18 56.99-5.66C56.99-5.15 56.82-4.77 56.50-4.52C56.17-4.27 55.70-4.14 55.08-4.14ZM57.08 0L58.21 0L56.22-3.43C56.76-3.57 57.18-3.82 57.50-4.19C57.82-4.56 57.98-5.05 57.98-5.66C57.98-6.07 57.92-6.42 57.78-6.70C57.64-6.98 57.45-7.20 57.21-7.38C56.97-7.56 56.67-7.68 56.33-7.76C55.99-7.83 55.62-7.87 55.22-7.87L52.76-7.87L52.76 0L53.76 0L53.76-3.32L55.19-3.32ZM59.74-7.87L59.74 0L60.73 0L60.73-2.50L62.09-4.09L64.44 0L65.56 0L62.71-4.87L65.17-7.87L64.04-7.87L60.77-3.92L60.73-3.92L60.73-7.87Z" transform="translate(-1.08, 8.016)"></path></g></g></g></g></g><defs v-gra="od"></defs></svg>